<svg width="29" height="28" viewBox="0 0 29 28" fill="none" xmlns="http://www.w3.org/2000/svg">
<path d="M26.5111 8.564L17.4295 1.29874C15.6548 -0.11549 12.8818 -0.129355 11.1209 1.28488L2.03934 8.564C0.73603 9.60388 -0.0542752 11.6836 0.223025 13.3197L1.97002 23.7739C2.3721 26.1171 4.54891 27.9611 6.91982 27.9611H21.6168C23.96 27.9611 26.1784 26.0755 26.5804 23.76L28.3274 13.3058C28.577 11.6836 27.7867 9.60388 26.5111 8.564ZM15.3082 22.4151C15.3082 22.9836 14.8368 23.455 14.2683 23.455C13.6999 23.455 13.2285 22.9836 13.2285 22.4151V18.2556C13.2285 17.6871 13.6999 17.2157 14.2683 17.2157C14.8368 17.2157 15.3082 17.6871 15.3082 18.2556V22.4151Z" fill="#292D32"/>
</svg>
