<svg fill="none" height="24" viewBox="0 0 24 24" width="24" xmlns="http://www.w3.org/2000/svg"><g fill="#292d32"><path d="m19.3399 14.4899-1-1.66c-.21-.37-.4-1.07-.4-1.48v-2.53c0-3.26-2.65-5.92-5.92-5.92-3.26996 0-5.91996 2.66-5.91996 5.92v2.53c0 .41-.19 1.11-.4 1.47l-1.01 1.67c-.4.67-.49 1.41-.24 2.09.24.67.81 1.19 1.55 1.44 1.94.66 3.98.98 6.01996.98 2.04 0 4.08-.32 6.02-.97.7-.23 1.24-.76 1.5-1.45s.19-1.45-.2-2.09z" opacity=".4"/><path d="m14.2508 3.32c-.69-.27-1.44-.42-2.23-.42-.78 0-1.53.14-2.22002.42.43002-.81 1.28002-1.32 2.22002-1.32.95 0 1.79.51 2.23 1.32z"/><path d="m14.8297 20.01c-.42 1.16-1.53 1.99-2.83 1.99-.79 0-1.57-.32-2.12001-.89-.32-.3-.56-.7-.7-1.11.13.02.26.03.4.05.23.03.47001.06.71001.08.57.05 1.15.08 1.73.08.57 0 1.14-.03 1.7-.08.21-.02.42-.03.62-.06.16-.02.32-.04.49-.06z"/></g></svg>