<svg width="178" height="207" viewBox="0 0 178 207" fill="none" xmlns="http://www.w3.org/2000/svg">
<path d="M173.568 124.845L161.915 105.458C159.337 101.231 157.069 93.0842 157.069 88.1344V68.8509C157.069 31.4186 126.648 0.998344 89.3192 0.998344C51.8872 1.10146 21.467 31.4186 21.467 68.8509V88.0313C21.467 92.981 19.1984 101.127 16.7235 105.355L5.07101 124.742C0.63688 132.27 -0.394314 140.828 2.38991 148.253C5.17413 155.781 11.4644 161.762 19.714 164.443C30.8509 168.155 42.0909 170.836 53.5371 172.795C54.6714 173.002 55.8057 173.105 56.9401 173.311C58.3837 173.517 59.9305 173.724 61.4773 173.93C64.1584 174.342 66.8395 174.652 69.6234 174.858C76.12 175.477 82.7196 175.786 89.3192 175.786C95.8158 175.786 102.312 175.477 108.706 174.858C111.077 174.652 113.449 174.445 115.718 174.136C117.574 173.93 119.43 173.724 121.286 173.414C122.421 173.311 123.555 173.105 124.689 172.899C136.239 171.042 147.685 168.155 158.822 164.443C166.762 161.762 172.846 155.781 175.733 148.15C178.621 140.416 177.796 131.96 173.568 124.845ZM96.847 82.9785C96.847 87.3095 93.3409 90.8155 89.0099 90.8155C84.6789 90.8155 81.1728 87.3095 81.1728 82.9785V51.0113C81.1728 46.6802 84.6789 43.1742 89.0099 43.1742C93.3409 43.1742 96.847 46.6802 96.847 51.0113V82.9785Z" fill="#292D32"/>
<path d="M118.301 186.193C113.97 198.155 102.524 206.713 89.1181 206.713C80.9717 206.713 72.9284 203.414 67.2567 197.536C63.9569 194.442 61.482 190.317 60.0383 186.09C61.3789 186.296 62.7194 186.399 64.1631 186.605C66.5348 186.915 69.0098 187.224 71.4847 187.43C77.3625 187.946 83.3434 188.255 89.3243 188.255C95.2021 188.255 101.08 187.946 106.855 187.43C109.02 187.224 111.186 187.121 113.248 186.811C114.898 186.605 116.548 186.399 118.301 186.193Z" fill="#292D32"/>
</svg>
