<svg width="20" height="28" viewBox="0 0 20 28" fill="none" xmlns="http://www.w3.org/2000/svg">
<path opacity="0.4" d="M9.85462 0C6.1866 0 3.20459 2.98201 3.20459 6.65003C3.20459 10.2481 6.0186 13.1601 9.68662 13.2861C9.79862 13.2721 9.91062 13.2721 9.99462 13.2861H10.0646H10.0926C13.6766 13.1601 16.4907 10.2481 16.5047 6.65003C16.5047 2.98201 13.5226 0 9.85462 0Z" fill="#292D32"/>
<path d="M16.968 17.0099C13.062 14.4059 6.69203 14.4059 2.75801 17.0099C0.980005 18.1999 0 19.8099 0 21.5319C0 23.2539 0.980005 24.8499 2.74401 26.026C4.70402 27.342 7.27998 28 9.85599 28C12.432 28 15.008 27.342 16.968 26.026C18.732 24.8359 19.712 23.2399 19.712 21.5039C19.698 19.7819 18.732 18.1859 16.968 17.0099Z" fill="#292D32"/>
</svg>
