<svg width="20" height="28" viewBox="0 0 20 28" fill="none" xmlns="http://www.w3.org/2000/svg">
<path opacity="0.4" d="M4.20459 6.65003C4.20459 3.5343 6.73889 1 9.85462 1C12.9697 1 15.5036 3.53325 15.5047 6.6481C15.4917 9.70528 13.1101 12.1706 10.0743 12.2861H10.0646H10.0583C9.92037 12.2716 9.78172 12.2732 9.65523 12.284C6.5513 12.1442 4.20459 9.68075 4.20459 6.65003Z" stroke="black" stroke-width="2"/>
<path d="M3.30145 25.1957L3.29871 25.1939C1.7368 24.1526 1 22.8374 1 21.5319C1 20.2257 1.73757 18.8969 3.31211 17.8424C5.08225 16.6714 7.45466 16.0569 9.87352 16.0569C12.2937 16.0569 14.6585 16.672 16.4133 17.842C17.9679 18.8784 18.6998 20.1929 18.712 21.5079C18.7106 22.8269 17.9727 24.1416 16.4098 25.1963C14.6481 26.3788 12.2775 27 9.85599 27C7.43409 27 5.06324 26.3786 3.30145 25.1957Z" stroke="black" stroke-width="2"/>
</svg>
