<svg width="178" height="179" viewBox="0 0 178 179" fill="none" xmlns="http://www.w3.org/2000/svg">
<path d="M79.7197 158.366C123.281 158.366 158.594 123.053 158.594 79.4921C158.594 35.931 123.281 0.617859 79.7197 0.617859C36.1586 0.617859 0.845459 35.931 0.845459 79.4921C0.845459 123.053 36.1586 158.366 79.7197 158.366Z" fill="#292D32"/>
<path d="M175.84 148.999C172.951 143.659 166.823 140.683 158.594 140.683C152.379 140.683 147.039 143.222 143.887 147.599C140.736 151.976 140.036 157.841 141.962 163.706C145.726 175.087 152.291 177.625 155.881 178.063C156.406 178.15 156.931 178.15 157.544 178.15C161.396 178.15 167.348 176.487 173.126 167.821C177.766 161.08 178.641 154.339 175.84 148.999Z" fill="#292D32"/>
</svg>
